<?xml version="1.0" encoding="UTF-8"?>
<svg width="320px" height="160px" viewBox="0 0 320 160" version="1.1" xmlns="http://www.w3.org/2000/svg" xmlns:xlink="http://www.w3.org/1999/xlink">
    <title>glygenNotFound</title>
    <g id="REACT-Homepage" stroke="none" stroke-width="1" fill="none" fill-rule="evenodd">
        <g id="Desktop-Copy-4" transform="translate(-549.000000, -837.000000)">
            <g id="glygenNotFound" transform="translate(549.000000, 837.000000)">
                <rect id="Rectangle" fill="#F2F2F2" x="0" y="0" width="320" height="160"></rect>
                <text id="Image-not-available" font-family="Tahoma" font-size="25.6" font-weight="normal" letter-spacing="1.06666676" fill="#B6B6B6">
                    <tspan x="38.4" y="57.2888889">Image not available</tspan>
                </text>
                <g id="fa-regular:image" transform="translate(125.155556, 59.733333)" fill-rule="nonzero">
                    <g id="Icon" transform="translate(2.683438, 13.417191)" fill="#B6B6B6">
                        <path d="M59.5807128,0.025459565 L6.16352201,0.025459565 C2.75946017,0.025459565 0,2.72575458 0,6.05683047 L0,42.2450559 C0,45.5761318 2.75946017,48.2764268 6.16352201,48.2764268 L59.5807128,48.2764268 C62.9847746,48.2764268 65.7442348,45.5761318 65.7442348,42.2450559 L65.7442348,6.05683047 C65.7442348,2.72575458 62.9847746,0.025459565 59.5807128,0.025459565 Z M60.927673,44.2576349 L4.81656184,44.2576349 C4.35632455,44.2576349 3.98322851,43.8825485 3.98322851,43.4198561 L3.98322851,4.88203072 C3.98322851,4.41933826 4.35632455,4.04425191 4.81656184,4.04425191 L60.927673,4.04425191 C61.3879102,4.04425191 61.7610063,4.41933826 61.7610063,4.88203072 L61.7610063,43.4198561 C61.7610063,43.8825485 61.3879102,44.2576349 60.927673,44.2576349 L60.927673,44.2576349 Z M15.0943396,9.62944399 C12.0261452,9.62944399 9.53878407,12.1300741 9.53878407,15.2146361 C9.53878407,18.299198 12.0261452,20.7998281 15.0943396,20.7998281 C18.1625341,20.7998281 20.6498952,18.299198 20.6498952,15.2146361 C20.6498952,12.1300741 18.1625341,9.62944399 15.0943396,9.62944399 Z M10.6498952,37.5554044 L55.0943396,37.5554044 L55.0943396,26.3850202 L42.9394785,14.1653181 C42.2886452,13.5110129 41.2333674,13.5110129 40.5823952,14.1653181 L23.9832285,30.8531739 L18.4950341,25.3357023 C17.8442007,24.681397 16.788923,24.681397 16.1379507,25.3357023 L10.6498952,30.8531739 L10.6498952,37.5554044 Z" id="Icon-Shape"></path>
                    </g>
                    <rect id="ViewBox" x="0" y="0" width="71.1111111" height="71.1111111"></rect>
                </g>
            </g>
        </g>
    </g>
</svg>