<?xml version="1.0" encoding="UTF-8"?>
<svg width="225px" height="113px" viewBox="0 0 225 113" version="1.1" xmlns="http://www.w3.org/2000/svg" xmlns:xlink="http://www.w3.org/1999/xlink">
    <title>glygenNotFoundSmall</title>
    <g id="REACT-Homepage" stroke="none" stroke-width="1" fill="none" fill-rule="evenodd">
        <g id="Desktop-Copy-4" transform="translate(-546.000000, -690.000000)">
            <g id="glygenNotFoundSmall" transform="translate(546.000000, 690.000000)">
                <rect id="Rectangle" fill="#F2F2F2" x="0" y="0" width="225" height="112.5"></rect>
                <text id="Image-not-available" font-family="Tahoma" font-size="18" font-weight="normal" letter-spacing="0.750000037" fill="#B6B6B6">
                    <tspan x="27" y="40">Image not available</tspan>
                </text>
                <g id="fa-regular:image" transform="translate(88.000000, 42.000000)" fill-rule="nonzero">
                    <g id="Icon" transform="translate(1.886792, 9.433962)" fill="#B6B6B6">
                        <path d="M41.8926887,0.0179012567 L4.33372642,0.0179012567 C1.94024543,0.0179012567 0,1.91654619 0,4.25870892 L0,29.7035549 C0,32.0457176 1.94024543,33.9443626 4.33372642,33.9443626 L41.8926887,33.9443626 C44.2861697,33.9443626 46.2264151,32.0457176 46.2264151,29.7035549 L46.2264151,4.25870892 C46.2264151,1.91654619 44.2861697,0.0179012567 41.8926887,0.0179012567 Z M42.83977,31.1186495 L3.38664505,31.1186495 C3.0630407,31.1186495 2.80070755,30.8549169 2.80070755,30.5295863 L2.80070755,3.43267785 C2.80070755,3.10734721 3.0630407,2.84361462 3.38664505,2.84361462 L42.83977,2.84361462 C43.1633744,2.84361462 43.4257075,3.10734721 43.4257075,3.43267785 L43.4257075,30.5295863 C43.4257075,30.8549169 43.1633744,31.1186495 42.83977,31.1186495 L42.83977,31.1186495 Z M10.6132075,6.7707028 C8.45588333,6.7707028 6.70695755,8.52895836 6.70695755,10.697791 C6.70695755,12.8666236 8.45588333,14.6248792 10.6132075,14.6248792 C12.7705318,14.6248792 14.5194575,12.8666236 14.5194575,10.697791 C14.5194575,8.52895836 12.7705318,6.7707028 10.6132075,6.7707028 Z M7.48820755,26.4061437 L38.7382075,26.4061437 L38.7382075,18.5519673 L30.1918208,9.95998929 C29.7342036,9.49993091 28.9922115,9.49993091 28.5344966,9.95998929 L16.8632075,21.6936379 L13.0043208,17.8141657 C12.5467036,17.3541073 11.8047115,17.3541073 11.3469966,17.8141657 L7.48820755,21.6936379 L7.48820755,26.4061437 Z" id="Icon-Shape"></path>
                    </g>
                    <rect id="ViewBox" x="0" y="0" width="50" height="50"></rect>
                </g>
            </g>
        </g>
    </g>
</svg>